# xmcd CD database file
#
# Track frame offsets:
#	150
#	16610
#	35945
#	54762
#	71774
#	88161
#	102428
#	120540
#	142037
#	158870
#	174071
#
# Disc length: 2593 seconds
#
# Revision: 0
# Processed by: cddbd v1.5.1PL0 Copyright (c) Steve Scherf et al.
# Submitted via: CDex 1.51
#
DISCID=8c0a1f0b
DTITLE=Not Fragile - 21st Century Ballroom
DYEAR=2001
DGENRE=Heavy Metal
TTITLE0=21st Century Ballroom
TTITLE1=Lost In The Rain
TTITLE2=Into The Hurricane
TTITLE3=Like Guardians
TTITLE4=Monsters Of Metal
TTITLE5=Starlight To The Revolution
TTITLE6=Dreamflight
TTITLE7=Lay It Down
TTITLE8=New Generation
TTITLE9=We Don't Surrender
TTITLE10=Somebody's Waiting
EXTD=YEAR: 2001
EXTT0=
EXTT1=
EXTT2=
EXTT3=
EXTT4=
EXTT5=
EXTT6=
EXTT7=
EXTT8=
EXTT9=
EXTT10=
PLAYORDER=
